<?xml version="1.0" standalone="no"?><!DOCTYPE svg PUBLIC "-//W3C//DTD SVG 1.1//EN" "http://www.w3.org/Graphics/SVG/1.1/DTD/svg11.dtd"><svg class="icon" width="200px" height="200.00px" viewBox="0 0 1024 1024" version="1.1" xmlns="http://www.w3.org/2000/svg"><path d="M260.736 445.248c-36.992 136.704 44.8 277.184 182.784 313.856a259.2 259.2 0 0 0 158.656-7.936 64.832 64.832 0 0 1 83.392 37.056 63.872 63.872 0 0 1-37.44 82.624 389.504 389.504 0 0 1-238.08 11.968c-206.848-54.912-329.6-265.664-274.176-470.72l-47.936-12.736a31.872 31.872 0 0 1-7.808-58.688L222.08 259.584a32.448 32.448 0 0 1 44.16 11.712l81.92 140.672a31.808 31.808 0 0 1 3.2 24.32 32.32 32.32 0 0 1-39.552 22.592l-51.072-13.568z m502.528 133.504c36.992-136.704-44.8-277.184-182.784-313.856a259.2 259.2 0 0 0-158.656 7.936 64.832 64.832 0 0 1-83.392-37.056 63.872 63.872 0 0 1 37.44-82.624 389.504 389.504 0 0 1 238.08-11.968c206.848 54.912 329.6 265.664 274.176 470.72l47.936 12.736a31.872 31.872 0 0 1 7.808 58.688l-141.952 81.152a32.448 32.448 0 0 1-44.16-11.712l-81.92-140.672a31.808 31.808 0 0 1-3.2-24.32 32.32 32.32 0 0 1 39.552-22.592l51.072 13.568z" fill="#ffffff" /></svg>